<mxfile host="app.diagrams.net" modified="2021-01-18T07:05:24.635Z" agent="5.0 (Macintosh; Intel Mac OS X 10_15_7) AppleWebKit/537.36 (KHTML, like Gecko) Chrome/87.0.4280.88 Safari/537.36" etag="OROEFaFdBgtiniqKS8hy" version="14.2.3" type="github">
  <diagram id="uZtWq5dA2kiW7C4pv2Wi" name="Page-1">
    <mxGraphModel dx="880" dy="590" grid="1" gridSize="10" guides="1" tooltips="1" connect="1" arrows="1" fold="1" page="1" pageScale="1" pageWidth="1027" pageHeight="1169" math="0" shadow="0">
      <root>
        <mxCell id="0" />
        <mxCell id="1" parent="0" />
        <mxCell id="tKXeB_8AEM6nexIG0XaB-1" value="&lt;span&gt;&lt;font color=&quot;#333333&quot;&gt;宋老师在git上新建项目&lt;/font&gt;&lt;/span&gt;" style="rounded=1;whiteSpace=wrap;html=1;fillColor=#d5e8d4;strokeColor=#82b366;" parent="1" vertex="1">
          <mxGeometry x="210" y="40" width="180" height="40" as="geometry" />
        </mxCell>
        <mxCell id="tKXeB_8AEM6nexIG0XaB-2" value="&lt;font color=&quot;#333333&quot;&gt;复制extra中的文件新建项目&lt;/font&gt;" style="rounded=1;whiteSpace=wrap;html=1;fillColor=#d5e8d4;strokeColor=#82b366;" parent="1" vertex="1">
          <mxGeometry x="210" y="120" width="180" height="40" as="geometry" />
        </mxCell>
        <mxCell id="tKXeB_8AEM6nexIG0XaB-4" value="&lt;h1&gt;adaptation.pug&lt;/h1&gt;&lt;blockquote&gt;&lt;/blockquote&gt;script.&lt;br&gt;&lt;span style=&quot;font-weight: bold ; font-style: italic&quot;&gt;&amp;nbsp; &amp;nbsp; window&lt;/span&gt;.__bd_gitID = &#39;parent_fe/fe-pigai&#39;; // zyb666---这个参数不知道是干什么的 猜测是pma用的&lt;br&gt;script(src=&#39;https://boxcdn.zuoyebang.cc/v1/zyb-srmp/dd656b91/pma-0.0.7.js&#39;, defer)" style="text;html=1;strokeColor=#82b366;fillColor=#d5e8d4;spacing=5;spacingTop=-20;whiteSpace=wrap;overflow=hidden;rounded=0;rotation=0;" parent="1" vertex="1">
          <mxGeometry x="205" y="220" width="665" height="100" as="geometry" />
        </mxCell>
        <mxCell id="tKXeB_8AEM6nexIG0XaB-5" value="&lt;h1&gt;math/index.pug //加了adx要用的东西&lt;/h1&gt;&lt;font&gt;&lt;span style=&quot;font-size: 12px ; color: rgb(17 , 31 , 44)&quot;&gt;block headscript&lt;/span&gt;&lt;br style=&quot;box-sizing: border-box ; color: rgb(17 , 31 , 44)&quot;&gt;&lt;span style=&quot;font-size: 12px ; color: rgb(17 , 31 , 44)&quot;&gt;&amp;nbsp; &amp;nbsp; link(rel=&#39;stylesheet&#39;, href=&#39;&lt;/span&gt;&lt;a href=&quot;https://jiazhang.zuoyebang.com/static/parentadx/parent-adx.1.0.0.css&quot; target=&quot;_blank&quot; style=&quot;font-size: 12px ; box-sizing: border-box ; outline: none ; cursor: pointer ; transition: all 0.3s ease 0s&quot;&gt;https://jiazhang.zuoyebang.com/static/parentadx/parent-adx.1.0.0.css&lt;/a&gt;&lt;span style=&quot;font-size: 12px ; color: rgb(17 , 31 , 44)&quot;&gt;&#39;)&amp;nbsp;&lt;/span&gt;&lt;br style=&quot;box-sizing: border-box ; color: rgb(17 , 31 , 44)&quot;&gt;&lt;span style=&quot;font-size: 12px ; color: rgb(17 , 31 , 44)&quot;&gt;&amp;nbsp; &amp;nbsp; script(src=&#39;&lt;/span&gt;&lt;a href=&quot;https://jiazhang.zuoyebang.com/static/parentadx/parent-adx.1.0.0.js&quot; target=&quot;_blank&quot; style=&quot;font-size: 12px ; box-sizing: border-box ; outline: none ; cursor: pointer ; transition: all 0.3s ease 0s&quot;&gt;https://jiazhang.zuoyebang.com/static/parentadx/parent-adx.1.0.0.js&lt;/a&gt;&lt;span style=&quot;font-size: 12px ; color: rgb(17 , 31 , 44)&quot;&gt;&#39;)&lt;br&gt;&lt;/span&gt;&lt;/font&gt;&lt;blockquote style=&quot;margin: 0 0 0 40px ; border: none ; padding: 0px&quot;&gt;&lt;/blockquote&gt;&lt;blockquote style=&quot;margin: 0 0 0 40px ; border: none ; padding: 0px&quot;&gt;&lt;/blockquote&gt;&lt;span style=&quot;color: rgb(17 , 31 , 44)&quot;&gt;&amp;nbsp; &amp;nbsp; script.&lt;/span&gt;&lt;br&gt;&lt;blockquote style=&quot;margin: 0 0 0 40px ; border: none ; padding: 0px&quot;&gt;&lt;/blockquote&gt;&lt;span style=&quot;color: rgb(17 , 31 , 44)&quot;&gt;&amp;nbsp; &amp;nbsp; &amp;nbsp; &amp;nbsp; window._GLOBAL_ADX_DATA = null;&lt;/span&gt;&lt;br&gt;&lt;blockquote style=&quot;margin: 0 0 0 40px ; border: none ; padding: 0px&quot;&gt;&lt;/blockquote&gt;&lt;span style=&quot;color: rgb(17 , 31 , 44)&quot;&gt;&amp;nbsp; &amp;nbsp; &amp;nbsp; &amp;nbsp; window._GLOBAL_SCROLL_END = null;&lt;/span&gt;&lt;br&gt;&lt;blockquote style=&quot;margin: 0 0 0 40px ; border: none ; padding: 0px&quot;&gt;&lt;/blockquote&gt;&lt;span style=&quot;color: rgb(17 , 31 , 44)&quot;&gt;&amp;nbsp; &amp;nbsp; &amp;nbsp; &amp;nbsp; window.feGetAdx = function(data) {&lt;/span&gt;&lt;br&gt;&lt;blockquote style=&quot;margin: 0 0 0 40px ; border: none ; padding: 0px&quot;&gt;&lt;/blockquote&gt;&lt;span style=&quot;color: rgb(17 , 31 , 44)&quot;&gt;&amp;nbsp; &amp;nbsp; &amp;nbsp; &amp;nbsp; &amp;nbsp; &amp;nbsp; window._GLOBAL_ADX_DATA = data;&lt;/span&gt;&lt;br&gt;&lt;blockquote style=&quot;margin: 0 0 0 40px ; border: none ; padding: 0px&quot;&gt;&lt;/blockquote&gt;&lt;span style=&quot;color: rgb(17 , 31 , 44)&quot;&gt;&amp;nbsp; &amp;nbsp; &amp;nbsp; &amp;nbsp; };&lt;/span&gt;&lt;br&gt;&lt;blockquote style=&quot;margin: 0 0 0 40px ; border: none ; padding: 0px&quot;&gt;&lt;/blockquote&gt;&lt;span style=&quot;color: rgb(17 , 31 , 44)&quot;&gt;&amp;nbsp; &amp;nbsp; &amp;nbsp; &amp;nbsp; window.natvieScrollEnd = function(data) {&lt;/span&gt;&lt;br&gt;&lt;blockquote style=&quot;margin: 0 0 0 40px ; border: none ; padding: 0px&quot;&gt;&lt;/blockquote&gt;&lt;span style=&quot;color: rgb(17 , 31 , 44)&quot;&gt;&amp;nbsp; &amp;nbsp; &amp;nbsp; &amp;nbsp; &amp;nbsp; &amp;nbsp; window._GLOBAL_SCROLL_END = data;&lt;/span&gt;&lt;br&gt;&lt;font&gt;&lt;span style=&quot;font-size: 12px ; color: rgb(17 , 31 , 44)&quot;&gt;&amp;nbsp; &amp;nbsp; &amp;nbsp; &amp;nbsp; };&lt;br&gt;&lt;br&gt;zyb.send()打点遗留&lt;br&gt;&lt;/span&gt;&lt;/font&gt;&lt;blockquote style=&quot;margin: 0 0 0 40px ; border: none ; padding: 0px&quot;&gt;&lt;/blockquote&gt;&lt;blockquote style=&quot;margin: 0 0 0 40px ; border: none ; padding: 0px&quot;&gt;&lt;/blockquote&gt;&lt;blockquote style=&quot;margin: 0 0 0 40px ; border: none ; padding: 0px&quot;&gt;&lt;/blockquote&gt;&lt;blockquote style=&quot;margin: 0 0 0 40px ; border: none ; padding: 0px&quot;&gt;&lt;/blockquote&gt;&lt;blockquote style=&quot;margin: 0 0 0 40px ; border: none ; padding: 0px&quot;&gt;&lt;/blockquote&gt;&lt;blockquote style=&quot;margin: 0 0 0 40px ; border: none ; padding: 0px&quot;&gt;&lt;/blockquote&gt;&lt;blockquote style=&quot;margin: 0 0 0 40px ; border: none ; padding: 0px&quot;&gt;&lt;/blockquote&gt;&lt;blockquote&gt;&lt;/blockquote&gt;" style="text;html=1;strokeColor=#0e8088;fillColor=#b0e3e6;spacing=5;spacingTop=-20;whiteSpace=wrap;overflow=hidden;rounded=0;rotation=0;" parent="1" vertex="1">
          <mxGeometry x="205" y="360" width="665" height="270" as="geometry" />
        </mxCell>
      </root>
    </mxGraphModel>
  </diagram>
</mxfile>
